<svg xmlns="http://www.w3.org/2000/svg" width="136" height="84" viewBox="0 0 136 84" role="img" aria-labelledby="title desc">
<title id="title">Chinese Radicals</title><desc id="desc">Learn radicals &amp; characters. Original animated pixel art; reduced-motion preferences disable animation.</desc>
<defs><linearGradient id="bg" x2="1" y2="1"><stop stop-color="#171426"/><stop offset="1" stop-color="#0e1423"/></linearGradient></defs>

<rect x="1" y="2" width="134" height="78" rx="12" fill="url(#bg)" stroke="#353047"/>
<path d="M58.0 2h20" stroke="#f3a5bc" stroke-opacity=".65"/>
<g transform="translate(54.0 10) scale(1.4)" style="--delay:16s" shape-rendering="crispEdges">
<path d="M1 0h15v2h3v18H1z" fill="#633847"/><path d="M3 2h12v3h2v13H3z" fill="#251e2a"/>
<path d="M15 2v3h2" fill="none" stroke="#f3a5bc"/>
<path d="M5 8h10M10 4v12M10 8l-5 7M10 8l5 7" fill="none" stroke="#754b5c" stroke-width="2"/>
<path class="move stroke" d="M5 8h10M10 4v12M10 8l-5 7M10 8l5 7" fill="none" stroke="#f3a5bc" stroke-width="2"/>
</g>
<g font-family="'Segoe UI',Arial,sans-serif" font-size="13" font-weight="600" fill="#f5f1ff"><text x="68.0" y="56" text-anchor="middle">Chinese</text><text x="68.0" y="71" text-anchor="middle">Radicals</text></g>
</svg>
