<svg xmlns="http://www.w3.org/2000/svg" width="112" height="84" viewBox="0 0 112 84" role="img" aria-labelledby="title desc">
<title id="title">Chinese Touch Typing</title><desc id="desc">Practise Mandarin pinyin. Original animated pixel art; reduced-motion preferences disable animation.</desc>
<defs><linearGradient id="bg" x2="1" y2="1"><stop stop-color="#171426"/><stop offset="1" stop-color="#0e1423"/></linearGradient></defs>

<rect x="1" y="2" width="110" height="78" rx="12" fill="url(#bg)" stroke="#353047"/>
<path d="M46.0 2h20" stroke="#f3cc88" stroke-opacity=".65"/>
<g transform="translate(42.0 10) scale(1.4)" style="--delay:12s" shape-rendering="crispEdges">
<path d="M2 4h16v1h2v12h-2v1H2v-1H0V5h2z" fill="#f3cc88"/>
<path d="M1 6h18v10H1z" fill="#403729"/>
<path d="M3 7h2v2H3m4-2h2v2H7m4-2h2v2h-2m4-2h2v2h-2M3 11h2v2H3m4-2h2v2H7m4-2h2v2h-2m4-2h2v2h-2M6 14h8v1H6" fill="#af986d"/>
<g fill="#fff1d2"><path class="move key-a" opacity="0" d="M3 7h2v2H3"/><path class="move key-b" opacity="0" d="M11 11h2v2h-2"/><path class="move key-c" opacity="0" d="M6 14h8v1H6"/></g>
<path d="M9 1h2v2H9" fill="#f3cc88"/>
</g>
<g font-family="'Segoe UI',Arial,sans-serif" font-size="13" font-weight="600" fill="#f5f1ff"><text x="56.0" y="56" text-anchor="middle">Chinese</text><text x="56.0" y="71" text-anchor="middle">Touch Typing</text></g>
</svg>
