<svg xmlns="http://www.w3.org/2000/svg" width="520" height="600" viewBox="0 0 520 600" role="img" aria-labelledby="title desc">
<title id="title">Hey, I&#x27;m Artem — software engineer in London</title>
<desc id="desc">Original animated illustration. Motion is disabled when reduced motion is preferred.</desc>
<defs>
  <linearGradient id="bg" x2="1" y2="1"><stop stop-color="#171426"/><stop offset="1" stop-color="#0e1423"/></linearGradient>
  <linearGradient id="rainbow"><stop stop-color="#71efd2"/><stop offset=".5" stop-color="#b496ff"/><stop offset="1" stop-color="#ff7fc8"/></linearGradient>
  <radialGradient id="halo"><stop stop-color="#7150ba" stop-opacity=".27"/><stop offset="1" stop-color="#7150ba" stop-opacity="0"/></radialGradient>
</defs>
<style>
text{font-family:'Segoe UI',Arial,sans-serif}
.mono{font-family:Consolas,'Liberation Mono',monospace}
.float{animation:float 5s ease-in-out infinite}
.float2{animation:float 6s ease-in-out -2s infinite}
.orbit{animation:orbit 20s linear infinite;transform-box:fill-box;transform-origin:center}
.spark{animation:spark 3s ease-in-out infinite}
.dash{animation:dash 9s linear infinite}
.blink{animation:blink 4.8s ease-in-out infinite;transform-box:fill-box;transform-origin:center}
.cursor{animation:cursor 1.5s step-end infinite}
@keyframes float{0%,100%{transform:translateY(0)}50%{transform:translateY(-9px)}}
@keyframes orbit{to{transform:rotate(360deg)}}
@keyframes spark{0%,100%{opacity:.35}50%{opacity:1}}
@keyframes dash{to{stroke-dashoffset:-100}}
@keyframes blink{0%,43%,47%,100%{transform:scaleY(1)}45%{transform:scaleY(.15)}}
@keyframes cursor{50%{opacity:0}}
@media(prefers-reduced-motion:reduce){*{animation:none!important}}
</style>
<rect x="1" y="1" width="518" height="598" rx="20" fill="url(#bg)" stroke="#353047"/><path d="M32 1 H488" stroke="url(#rainbow)" stroke-width="2"/><text x="30" y="44" fill="#71efd2" font-size="12" font-weight="600" class="mono" letter-spacing="1">SKULITOM / ENGINEER &amp; EXPLORER</text><text x="28" y="113" fill="#f5f1ff" font-size="49" font-weight="700" >Hey, I&#x27;m Artem.</text><text x="30" y="156" fill="#b6aecb" font-size="21" font-weight="400" >Serious systems. Playful possibilities.</text><rect x="30" y="184" width="141" height="30" rx="15" fill="#71efd2" fill-opacity=".09" stroke="#71efd2" stroke-opacity=".38"/><text x="100.5" y="204" fill="#71efd2" font-size="13" font-weight="500" text-anchor="middle">Python systems</text><rect x="180" y="184" width="111" height="30" rx="15" fill="#b496ff" fill-opacity=".09" stroke="#b496ff" stroke-opacity=".38"/><text x="235.5" y="204" fill="#b496ff" font-size="13" font-weight="500" text-anchor="middle">AI agents</text><rect x="300" y="184" width="150" height="30" rx="15" fill="#ff7fc8" fill-opacity=".09" stroke="#ff7fc8" stroke-opacity=".38"/><text x="375.0" y="204" fill="#ff7fc8" font-size="13" font-weight="500" text-anchor="middle">Creative code</text><g transform="translate(264 393) scale(0.93)"><circle r="198" fill="url(#halo)"/><ellipse rx="159" ry="110" transform="rotate(-26)" fill="none" stroke="#4e3d70" stroke-width="1.5" stroke-dasharray="4 8" class="dash"/><ellipse rx="136" ry="155" transform="rotate(35)" fill="none" stroke="#283e51"/><g transform="translate(0 -10) scale(1.2)"><g class="float">
<path d="M-29 32 L-45 53 M29 32 L45 17" fill="none" stroke="#b496ff" stroke-width="9" stroke-linecap="round"/>
<circle cx="46" cy="13" r="7" fill="#71efd2"/>
<rect x="-27" y="24" width="54" height="45" rx="15" fill="#302742" stroke="#b496ff" stroke-width="2"/>
<path d="M-13 72 L-17 84 M13 72 L17 84" stroke="#b496ff" stroke-width="10" stroke-linecap="round"/>
<path d="M0 -35 V-48" stroke="#b496ff" stroke-width="3"/>
<circle cx="0" cy="-51" r="5" fill="#ffcd77"/>
<rect x="-43" y="-33" width="86" height="62" rx="20" fill="#3b2f57" stroke="#b496ff" stroke-width="2"/>
<rect x="-33" y="-23" width="66" height="42" rx="13" fill="#0c1624"/>
<g class="blink" fill="#71efd2"><rect x="-22" y="-10" width="11" height="14" rx="5"/><rect x="11" y="-10" width="11" height="14" rx="5"/></g>
<path d="M-5 7 Q0 11 5 7" fill="none" stroke="#71efd2" stroke-width="2" stroke-linecap="round"/>
<path d="M-8 47 L-1 41 M-8 47 L-1 53 M8 41 L1 53" fill="none" stroke="#ff7fc8" stroke-width="2" stroke-linecap="round"/>
</g></g><g transform="translate(-126 -77)"><g class="float2"><rect x="-31" y="-24" width="62" height="48" rx="12" fill="#29382f" stroke="#71efd2"/><text x="-21" y="7" fill="#71efd2" font-size="26" font-weight="600" class="mono">{ }</text></g></g><g transform="translate(132 53)"><g class="float"><circle r="24" fill="#573749" stroke="#ff7fc8"/><ellipse rx="36" ry="8" transform="rotate(-30)" fill="none" stroke="#ff7fc8" stroke-width="3"/></g></g><g transform="translate(100 -117)"><g class="float2"><path d="M-20 16 L-20 -16 Q-8 -20 0 -13 Q8 -20 20 -16 L20 16 Q8 12 0 20 Q-8 12 -20 16Z" fill="#514437" stroke="#ffcd77" stroke-width="2"/><path d="M0 -12 V19" stroke="#ffcd77" stroke-width="2"/></g></g><g transform="translate(-92 100) scale(0.8)"><path class="spark" style="animation-delay:0.0s" d="M0 -7 Q0 0 7 0 Q0 0 0 7 Q0 0 -7 0 Q0 0 0 -7" fill="#ff7fc8"/></g><g transform="translate(56 -64) scale(1.1)"><path class="spark" style="animation-delay:-0.4s" d="M0 -7 Q0 0 7 0 Q0 0 0 7 Q0 0 -7 0 Q0 0 0 -7" fill="#71efd2"/></g><g transform="translate(-45 -130) scale(0.8)"><path class="spark" style="animation-delay:-0.8s" d="M0 -7 Q0 0 7 0 Q0 0 0 7 Q0 0 -7 0 Q0 0 0 -7" fill="#ffcd77"/></g><g transform="translate(158 -30) scale(1.1)"><path class="spark" style="animation-delay:-1.2000000000000002s" d="M0 -7 Q0 0 7 0 Q0 0 0 7 Q0 0 -7 0 Q0 0 0 -7" fill="#b496ff"/></g><g transform="translate(65 126) scale(0.8)"><path class="spark" style="animation-delay:-1.6s" d="M0 -7 Q0 0 7 0 Q0 0 0 7 Q0 0 -7 0 Q0 0 0 -7" fill="#ffcd77"/></g><g transform="translate(-151 31) scale(1.1)"><path class="spark" style="animation-delay:-2.0s" d="M0 -7 Q0 0 7 0 Q0 0 0 7 Q0 0 -7 0 Q0 0 0 -7" fill="#71efd2"/></g><circle cx="-75" cy="-8" r="3" fill="#ff7fc8"/><circle cx="59" cy="76" r="3" fill="#71efd2"/></g><text x="260" y="568" fill="#b6aecb" font-size="12" font-weight="500" class="mono" text-anchor="middle" letter-spacing="1.1">SOFTWARE ENGINEER · LONDON, UK</text>
</svg>
