<svg xmlns="http://www.w3.org/2000/svg" width="112" height="84" viewBox="0 0 112 84" role="img" aria-labelledby="title desc">
<title id="title">Export Atlas</title><desc id="desc">Explore goods, services &amp; trade. Original animated pixel art; reduced-motion preferences disable animation.</desc>
<defs><linearGradient id="bg" x2="1" y2="1"><stop stop-color="#171426"/><stop offset="1" stop-color="#0e1423"/></linearGradient></defs>
<style>
.move{animation-duration:24s;animation-iteration-count:infinite;animation-delay:var(--delay,0s);animation-timing-function:steps(8,end)}
.globe{animation-name:globe}.ship{animation-name:ship;animation-timing-function:steps(1,end)}.train{animation-name:train}
.key-a{animation-name:key-a}.key-b{animation-name:key-b}.key-c{animation-name:key-c}
.stroke{animation-name:stroke;stroke-dasharray:20;stroke-dashoffset:0}
.reels{animation-name:reels;transform-origin:10px 10px}
.terminal-line{animation-name:terminal-line}.terminal-cursor{animation-name:terminal-cursor}
@keyframes globe{0%{transform:translateX(0)}10%{transform:translateX(-16px)}10.001%,100%{transform:translateX(0)}}
@keyframes ship{0%,10%,100%{transform:translate(0,0)}2%{transform:translate(1px,-1px)}4%{transform:translate(2px,0)}6%{transform:translate(1px,1px)}8%{transform:translate(0,1px)}}
@keyframes train{0%,100%{transform:translateX(0)}10%{transform:translateX(18px)}10.001%{transform:translateX(0)}}
@keyframes key-a{0%,1%,4%,100%{opacity:0}1.001%,3.999%{opacity:1}}
@keyframes key-b{0%,4%,7%,100%{opacity:0}4.001%,6.999%{opacity:1}}
@keyframes key-c{0%,7%,10%,100%{opacity:0}7.001%,9.999%{opacity:1}}
@keyframes stroke{0%,10%,100%{stroke-dashoffset:0}0.001%{stroke-dashoffset:20}9.999%{stroke-dashoffset:0}}
@keyframes reels{0%{transform:rotate(0)}10%,100%{transform:rotate(360deg)}}
@keyframes terminal-line{0%,10%,100%{transform:scaleX(1)}0.001%{transform:scaleX(0)}8%{transform:scaleX(1)}}
@keyframes terminal-cursor{0%,2%,4%,6%,8%,10%,100%{opacity:1}1%,3%,5%,7%,9%{opacity:0}}
@media(prefers-reduced-motion:reduce){*{animation:none!important}}
</style>
<rect x="1" y="2" width="110" height="78" rx="12" fill="url(#bg)" stroke="#353047"/>
<path d="M46.0 2h20" stroke="#a7f3d0" stroke-opacity=".65"/>
<g transform="translate(42.0 10) scale(1.4)" style="--delay:4s" shape-rendering="crispEdges">
<path d="M0 16h7v1H0m10-1h10v1H10M3 19h8v1H3m12-1h5v1h-5" fill="#568d98"/>
<g class="move ship"><path d="M1 11h17v2h-2v2H5v-1H3v-1H1z" fill="#a7f3d0"/>
<path d="M4 7h4v3H4m5-3h4v3H9m0-7h4v3H9" fill="#75b99c"/>
<path d="M14 5h3v6h-4V8h1z" fill="#eef1f8"/><path d="M15 6h1v1h-1" fill="#121826"/>
<path d="M5 8h2v1H5m5-1h2v1h-2m0-5h2v1h-2" fill="#d2ffe8"/></g>
<path d="M1 2h5v1H1m4-2h1v4H5m1-3h1v1H6" fill="#a7f3d0"/>
</g>
<g font-family="'Segoe UI',Arial,sans-serif" font-size="13" font-weight="600" fill="#f5f1ff"><text x="56.0" y="64" text-anchor="middle">Export Atlas</text></g>
</svg>
